<!DOCTYPE svg PUBLIC "-//W3C//DTD SVG 1.1//EN" "http://www.w3.org/Graphics/SVG/1.1/DTD/svg11.dtd">
<!-- Uploaded to: SVG Repo, www.svgrepo.com, Transformed by: SVG Repo Mixer Tools -->
<svg fill="#596f62" width="800px" height="800px" viewBox="0 0 24 24" xmlns="http://www.w3.org/2000/svg" stroke="#596f62">
<g id="SVGRepo_bgCarrier" stroke-width="0"/>
<g id="SVGRepo_tracerCarrier" stroke-linecap="round" stroke-linejoin="round"/>
<g id="SVGRepo_iconCarrier">
<path d="M21,19v3a1,1,0,0,1-2,0V19a1,1,0,0,1,2,0ZM11,15v7a1,1,0,0,0,2,0V15a1,1,0,0,0-2,0ZM3,22a1,1,0,0,0,2,0V12a1,1,0,0,0-2,0ZM21,6a1,1,0,0,0-2,0V7.586L12.707,1.293a1,1,0,0,0-1.414,0L8,4.586,4.707,1.293A1,1,0,0,0,3.293,2.707l4,4a1,1,0,0,0,1.414,0L12,3.414,17.586,9H16a1,1,0,0,0,0,2h4a1,1,0,0,0,1-1Z"/>
</g>
</svg>